# xmcd
#
# Track frame offsets: 
#        150
#        19297
#        35938
#        52810
#        68258
#        85146
#        106504
#        128145
#        144529
#        160345
#        171174
#        190591
#        208194
#        225735
#
# Disc length: 3245 seconds
#
# Revision: 0
# Processed by: cddbd v1.5.2PL0 Copyright (c) Steve Scherf et al.
# Submitted via: ExactAudioCopy v0.99pb5
#
DISCID=b50cab0e
DTITLE=GERD, Banda - O melhor da banda GERD - In memorian
DYEAR=2004
DGENRE=Gospel
TTITLE0=Vero amore
TTITLE1=Sempre juntos
TTITLE2=Anjos de Deus
TTITLE3=Ser feliz
TTITLE4=Vem, Espírito de Deus
TTITLE5=Envia tua unção
TTITLE6=In memorian
TTITLE7=Crente Miguel
TTITLE8=Você é dez
TTITLE9=Êta butina
TTITLE10=Estou sarado
TTITLE11=Você é tanto eu
TTITLE12=Se liga
TTITLE13=Não temas
EXTD=
EXTT0=
EXTT1=
EXTT2=
EXTT3=
EXTT4=
EXTT5=
EXTT6=
EXTT7=
EXTT8=
EXTT9=
EXTT10=
EXTT11=
EXTT12=
EXTT13=
PLAYORDER=
